<svg width="34" height="34" viewBox="0 0 34 34" fill="none" xmlns="http://www.w3.org/2000/svg">
<g id="mingcute:user-4-fill" clip-path="url(#clip0_674_1614)">
<g id="Group">
<path id="Vector" fill-rule="evenodd" clip-rule="evenodd" d="M17 2.83334C9.17573 2.83334 2.83331 9.17575 2.83331 17C2.83331 24.8243 9.17573 31.1667 17 31.1667C24.8242 31.1667 31.1666 24.8243 31.1666 17C31.1666 9.17575 24.8242 2.83334 17 2.83334ZM12.0416 13.4583C12.0416 12.8072 12.1699 12.1624 12.4191 11.5609C12.6683 10.9593 13.0335 10.4127 13.4939 9.95226C13.9543 9.49184 14.5009 9.12661 15.1025 8.87743C15.7041 8.62825 16.3488 8.5 17 8.5C17.6511 8.5 18.2959 8.62825 18.8975 8.87743C19.499 9.12661 20.0456 9.49184 20.5061 9.95226C20.9665 10.4127 21.3317 10.9593 21.5809 11.5609C21.8301 12.1624 21.9583 12.8072 21.9583 13.4583C21.9583 14.7734 21.4359 16.0345 20.5061 16.9644C19.5762 17.8943 18.315 18.4167 17 18.4167C15.6849 18.4167 14.4238 17.8943 13.4939 16.9644C12.564 16.0345 12.0416 14.7734 12.0416 13.4583ZM25.8655 24.0607C24.805 25.3946 23.4569 26.4718 21.9217 27.2116C20.3866 27.9515 18.7041 28.3349 17 28.3333C15.2959 28.3349 13.6134 27.9515 12.0782 27.2116C10.5431 26.4718 9.19494 25.3946 8.13448 24.0607C10.4309 22.4131 13.5646 21.25 17 21.25C20.4354 21.25 23.5691 22.4131 25.8655 24.0607Z" fill="#003366"/>
</g>
</g>
<defs>
<clipPath id="clip0_674_1614">
<rect width="34" height="34" fill="white"/>
</clipPath>
</defs>
</svg>
